<?xml version="1.0" encoding="utf-8"?>
<!-- Generator: Adobe Illustrator 18.1.1, SVG Export Plug-In . SVG Version: 6.00 Build 0)  -->
<!DOCTYPE svg PUBLIC "-//W3C//DTD SVG 1.1//EN" "http://www.w3.org/Graphics/SVG/1.1/DTD/svg11.dtd">
<svg version="1.1"
	 id="Calcman" xmlns:svg="http://www.w3.org/2000/svg" xmlns:cc="http://creativecommons.org/ns#" xmlns:rdf="http://www.w3.org/1999/02/22-rdf-syntax-ns#" xmlns:dc="http://purl.org/dc/elements/1.1/"
	 xmlns="http://www.w3.org/2000/svg" xmlns:xlink="http://www.w3.org/1999/xlink" x="0px" y="0px" width="625px" height="625px"
	 viewBox="263 -262 625 625" enable-background="new 263 -262 625 625" xml:space="preserve">
<g id="Cape">
	<path id="Right_Cape" fill="#D90000" stroke="#000000" stroke-width="2" stroke-linecap="round" stroke-linejoin="round" d="
		M393.3-68.5c0,0-21.7,157.4-31.8,176.8c-10.1,19.4-20.9,28-20.9,28s8.7,15.2,25.2,25.2c16.5,10,27.5,5.9,27.5,5.9"/>
	<path id="Left_Cape" fill="#D90000" stroke="#000000" stroke-width="2" stroke-linecap="round" stroke-linejoin="round" d="
		M724.4-51.8c0,0,19.9,136,33.8,154.5c20.4,27,28,32.3,28,32.3s-13,16.5-26.6,23.7c-13.6,7.2-35.2,7.9-35.2,7.9"/>
</g>
<g id="Body">
	<g id="Body_2_">
		<path id="Body_Top" fill="#C9C9C9" stroke="#000000" stroke-width="2" stroke-linecap="round" stroke-linejoin="round" d="
			M392.9-224.4h317.8l12.9,12.9l-316.2-0.1L392.9-224.4z"/>
		<path id="Body_Right" fill="#C9C9C9" stroke="#000000" stroke-width="2" stroke-linecap="round" stroke-linejoin="round" d="
			M393.3-224.6v437l14.1,13.7l-0.1-437L393.3-224.6z"/>
		<path id="Body_1_" fill="#C9C9C9" stroke="#000000" stroke-width="2" stroke-linecap="round" stroke-linejoin="round" d="
			M407.4,226.1h317v-437l-317-0.1L407.4,226.1z"/>
	</g>
	<g id="Face">
		<path id="Screen" fill="#FFFFFF" stroke="#000000" stroke-width="1.5" d="M421.1-197.6h290.2v162.1l-290.2,0L421.1-197.6
			L421.1-197.6z"/>
		<path id="Left_String" fill="#FFFFFF" stroke="#000000" stroke-width="1.5" d="M660.8-141l63.4,0.2"/>
		<path id="Right_String" fill="#FFFFFF" stroke="#000000" stroke-width="1.5" d="M407.5-140.7l63.4,0.2"/>
		<path id="Mask" stroke="#000000" stroke-width="1.5" d="M607.2-161.1c-32.1,0-41.4,10.7-41.4,10.7s-14.8-11.3-44.3-11.3
			c-45.2,0-50.6,21.2-50.6,21.2c0,9.9,16.2,20.1,50,20.7c33.9,0.6,45.5-8.6,45.5-8.6s8.6,8.6,43.1,8.6c35-0.6,51.8-10.5,51.2-20.9
			C660.8-151.8,639.3-161.1,607.2-161.1z M526.2-128.6c-7.4,0-12.9-4.1-12.9-11.1c-1.1-1.3,3.9-12.7,13.3-11.4c8.3,0,12.9,4,12.9,12
			S533.6-128.6,526.2-128.6z M606.3-128.5c-7.4,0-12.6-4.6-12.6-10.9c-1.4-0.6,3.1-12.2,13.2-11.5c8.6,0,13.3,4.9,13.3,11.5
			C620.1-132.7,613.8-128.5,606.3-128.5z"/>
		<path id="Mouth" stroke="#000000" stroke-width="1.5" stroke-linejoin="round" d="M470.1-103.7c0,0,6.3,12,95.5,12
			s97.3-9.9,97.3-9.9s-4.3,54.7-95.5,55C476.2-46.3,470.1-103.7,470.1-103.7z"/>
	</g>
	<g id="Buttons">
		<g id="Button__x3D_">
			<path id="Button_17_" fill="#C50000" stroke="#000000" stroke-width="2" d="M584,174.9h127.2v36.7H584V174.9z"/>
			<path id="_x3D_" d="M655.7,191.6h-16.1v-3.4h16.1V191.6 M655.7,198.3h-16.1v-3.4h16.1V198.3"/>
		</g>
		<g id="Button_ON">
			<path id="Button_18_" fill="#C50000" stroke="#000000" stroke-width="2" d="M502.3,174.9h47.5v36.7h-47.5V174.9z"/>
			<path id="N" d="M541.1,200.3h-3.5l-6-9.7v9.7h-3.3v-14.1h4.4l5.1,8.1v-8.1h3.3V200.3"/>
			<path id="O" d="M525.5,193.3c0,2.2-0.6,4-1.9,5.4c-1.3,1.3-3.1,2-5.3,2c-2.3,0-4-0.7-5.3-2c-1.3-1.3-1.9-3.1-1.9-5.4
				c0-2.3,0.6-4.1,1.9-5.4c1.3-1.3,3.1-2,5.3-2c2.3,0,4,0.7,5.3,2C524.9,189.2,525.5,191,525.5,193.3 M520.7,196.8
				c0.4-0.4,0.6-0.9,0.8-1.5c0.2-0.6,0.3-1.3,0.3-2.1c0-0.8-0.1-1.6-0.3-2.2c-0.2-0.6-0.5-1.1-0.8-1.4c-0.3-0.4-0.7-0.7-1.1-0.8
				c-0.4-0.2-0.9-0.3-1.3-0.3c-0.5,0-0.9,0.1-1.3,0.2c-0.4,0.2-0.8,0.4-1.1,0.8c-0.3,0.4-0.6,0.8-0.8,1.5c-0.2,0.6-0.3,1.3-0.3,2.2
				c0,0.8,0.1,1.6,0.3,2.2c0.2,0.6,0.5,1.1,0.8,1.4s0.7,0.6,1.1,0.8c0.4,0.2,0.9,0.3,1.3,0.3c0.5,0,0.9-0.1,1.3-0.3
				C520,197.5,520.4,197.2,520.7,196.8"/>
		</g>
		<g id="Button_AC">
			<path id="Button_16_" fill="#C50000" stroke="#000000" stroke-width="2" d="M469.2,174.9v36.7h-48.1v-36.7H469.2z"/>
			<path id="C" d="M454.1,200.6c-1,0-2-0.2-2.9-0.5c-0.9-0.3-1.6-0.8-2.3-1.4c-0.6-0.6-1.1-1.4-1.5-2.3c-0.3-0.9-0.5-2-0.5-3.2
				c0-1.1,0.2-2.1,0.5-3c0.3-0.9,0.8-1.7,1.5-2.3c0.6-0.6,1.4-1.1,2.3-1.5c0.9-0.3,1.9-0.5,3-0.5c0.6,0,1.1,0,1.6,0.1
				c0.5,0.1,0.9,0.1,1.3,0.3c0.4,0.1,0.8,0.3,1.1,0.4c0.3,0.1,0.7,0.3,0.9,0.4v3.4h-0.4c-0.2-0.2-0.4-0.3-0.7-0.5
				c-0.3-0.2-0.6-0.4-0.9-0.6c-0.3-0.2-0.7-0.4-1.1-0.5c-0.4-0.1-0.8-0.2-1.3-0.2c-0.5,0-1,0.1-1.5,0.2c-0.5,0.2-0.9,0.4-1.3,0.8
				c-0.4,0.4-0.7,0.8-0.9,1.4c-0.2,0.6-0.3,1.3-0.3,2.2c0,0.9,0.1,1.6,0.4,2.2c0.3,0.6,0.6,1.1,0.9,1.4c0.4,0.3,0.8,0.6,1.3,0.7
				c0.5,0.1,0.9,0.2,1.4,0.2c0.4,0,0.9-0.1,1.3-0.2c0.4-0.1,0.8-0.3,1.2-0.5c0.3-0.2,0.6-0.4,0.9-0.6c0.3-0.2,0.5-0.4,0.7-0.5h0.4
				v3.4c-0.4,0.2-0.7,0.3-1,0.4c-0.3,0.1-0.7,0.3-1,0.4c-0.5,0.1-0.9,0.2-1.3,0.3C455.4,200.5,454.8,200.6,454.1,200.6"/>
			<path id="A" d="M445.7,200.3h-3.8l-1-2.9h-5.2l-1,2.9h-3.7l5.2-14.1h4.2L445.7,200.3 M440.1,194.9l-1.7-5.1l-1.7,5.1H440.1"/>
		</g>
		<g id="Button__x2B__x2F_-">
			<path id="Button_11_" fill="#007F00" stroke="#000000" stroke-width="2" d="M630.8,124.2v38.1H584v-38.1H630.8z"/>
			<g id="_x2B__x2F_-">
				<path id="_x2D_" d="M625.6,144.2h-7.2v-2.7h7.2V144.2"/>
				<path id="_x2F_" d="M615.5,134.4l-7.5,17.8h-2.9l7.5-17.8H615.5"/>
				<path id="_x2B_" d="M601.9,144.1h-5.1v5h-2.6v-5h-5.1v-2.5h5.1v-5h2.6v5h5.1V144.1"/>
			</g>
		</g>
		<g id="Button_.">
			<path id="Button_9_" fill="#007F00" stroke="#000000" stroke-width="2" d="M469.2,124.2V162h-48.1v-37.7H469.2z"/>
			<path id="_x2E_" d="M447.5,155.8h-4.7v-5h4.7V155.8"/>
		</g>
		<g id="Button__x2B_">
			<path id="Button_15_" fill="#007F00" stroke="#000000" stroke-width="2" d="M663.2,124.3h48v38h-48V124.3z"/>
			<path id="_x2B__1_" d="M695.7,145H689v6.7h-3.5V145h-6.7v-3.4h6.7v-6.7h3.5v6.7h6.7V145z"/>
		</g>
		<g id="Button_-">
			<path id="Button_14_" fill="#007F00" stroke="#000000" stroke-width="2" d="M663.2,74.6h48v36.3h-48V74.6z"/>
			<path id="_x2D__1_" d="M692.1,102.7h-9.6V99h9.6V102.7"/>
		</g>
		<g id="Button_x">
			<path id="Button_13_" fill="#007F00" stroke="#000000" stroke-width="2" d="M711.2,27.8v33.7h-48V27.8H711.2z"/>
			<path id="x" d="M695.6,51.7h-5.3l-3-4.2l-3.1,4.2h-5.2l5.6-7.1l-5.5-7.1h5.3l3,4.2l3-4.2h5.2l-5.5,7L695.6,51.7"/>
		</g>
		<g id="Button__x2F_">
			<path id="Button_12_" fill="#007F00" stroke="#000000" stroke-width="2" d="M663.2-22.9h48v36.7h-48V-22.9z"/>
			<path id="_x2F__1_" d="M693.9-16.5l-10,23.8H680l10-23.8H693.9"/>
		</g>
		<g id="Button_9">
			<path id="Button_5_" fill="#003F7F" stroke="#000000" stroke-width="2" d="M584-22.9h46.8v36.3H584V-22.9z"/>
			<path id="_x39_" d="M615.1-5.8c0,1.6-0.2,3-0.6,4.4c-0.4,1.4-1,2.5-1.8,3.4c-0.9,1-2,1.8-3.3,2.3C608,4.8,606.4,5,604.7,5
				c-0.6,0-1.3,0-2-0.1c-0.7-0.1-1.2-0.1-1.4-0.2V1h0.5c0.3,0.1,0.6,0.2,1.1,0.4c0.5,0.1,1.1,0.2,1.9,0.2c0.7,0,1.3-0.1,1.9-0.2
				c0.6-0.2,1.2-0.4,1.6-0.8c0.5-0.4,0.9-0.9,1.2-1.4c0.3-0.6,0.5-1.3,0.6-2.1c-0.7,0.4-1.4,0.7-2,1c-0.6,0.2-1.4,0.3-2.3,0.3
				c-0.7,0-1.4-0.1-2-0.3c-0.6-0.2-1.2-0.4-1.8-0.8c-0.7-0.5-1.3-1.1-1.7-2c-0.4-0.8-0.6-1.8-0.6-3.1c0-2,0.7-3.7,2.1-4.9
				c1.4-1.3,3.2-1.9,5.5-1.9c1.2,0,2.2,0.2,3.1,0.5c0.9,0.3,1.7,0.8,2.4,1.4c0.8,0.7,1.3,1.6,1.7,2.8C614.9-8.8,615.1-7.4,615.1-5.8
				 M610.2-6.5c0-1-0.1-1.9-0.3-2.5c-0.2-0.7-0.5-1.2-0.8-1.5c-0.2-0.3-0.5-0.5-0.8-0.6c-0.3-0.1-0.7-0.2-1-0.2
				c-0.3,0-0.6,0.1-0.9,0.2c-0.3,0.1-0.6,0.3-0.9,0.6c-0.3,0.3-0.5,0.6-0.6,1.1c-0.2,0.4-0.2,1-0.2,1.6c0,0.6,0.1,1.1,0.3,1.5
				c0.2,0.4,0.4,0.7,0.7,0.9c0.3,0.2,0.6,0.4,1,0.5c0.4,0.1,0.8,0.1,1.3,0.1c0.4,0,0.8,0,1.2-0.1c0.4-0.1,0.8-0.2,1-0.3
				c0-0.1,0-0.2,0-0.4C610.2-5.9,610.2-6.2,610.2-6.5"/>
		</g>
		<g id="Button_8">
			<path id="Button_3_" fill="#003F7F" stroke="#000000" stroke-width="2" d="M502.3-22.9h47.5v36.3h-47.5V-22.9z"/>
			<path id="_x38_" d="M534-0.6c0,1.7-0.7,3-2.1,4.1c-1.4,1.1-3.4,1.6-5.8,1.6c-1.4,0-2.6-0.1-3.6-0.4c-1-0.3-1.8-0.7-2.5-1.2
				c-0.6-0.5-1.1-1.1-1.4-1.7c-0.3-0.7-0.5-1.4-0.5-2.1c0-0.9,0.3-1.8,0.8-2.5c0.6-0.7,1.5-1.4,2.9-1.9v-0.1
				c-1.1-0.5-1.9-1.1-2.4-1.9c-0.5-0.8-0.8-1.7-0.8-2.7c0-1.5,0.7-2.7,2.1-3.7c1.4-1,3.2-1.4,5.4-1.4c2.3,0,4.1,0.4,5.5,1.3
				c1.3,0.9,2,2,2,3.4c0,0.9-0.3,1.7-0.8,2.4c-0.6,0.7-1.4,1.3-2.6,1.8v0.1c1.3,0.5,2.3,1.2,2.9,2C533.7-2.8,534-1.8,534-0.6
				 M528.8-9.3c0-0.6-0.2-1.1-0.7-1.5c-0.5-0.4-1.1-0.6-2-0.6c-0.3,0-0.6,0-0.9,0.1c-0.3,0.1-0.6,0.2-0.9,0.3
				c-0.2,0.1-0.4,0.3-0.6,0.6c-0.2,0.2-0.2,0.5-0.2,0.8c0,0.5,0.1,0.9,0.4,1.2c0.3,0.3,0.7,0.6,1.4,0.8c0.2,0.1,0.6,0.2,1,0.4
				c0.4,0.1,0.9,0.3,1.5,0.5c0.4-0.5,0.7-0.9,0.8-1.2C528.7-8.3,528.8-8.8,528.8-9.3 M529.2-0.4c0-0.6-0.2-1.1-0.5-1.4
				c-0.3-0.3-0.9-0.7-1.9-1.1c-0.3-0.1-0.7-0.3-1.2-0.5c-0.5-0.2-1-0.3-1.3-0.5c-0.4,0.3-0.7,0.7-1,1.2c-0.3,0.5-0.4,1-0.4,1.6
				c0,0.9,0.3,1.6,0.9,2.1c0.6,0.5,1.5,0.8,2.5,0.8c0.3,0,0.6,0,0.9-0.1c0.4-0.1,0.7-0.2,0.9-0.4c0.3-0.2,0.5-0.4,0.7-0.7
				C529.1,0.4,529.2,0,529.2-0.4"/>
		</g>
		<g id="Button_7">
			<path id="Button" fill="#003F7F" stroke="#000000" stroke-width="2" d="M421.1-22.9h48.1l0,36.3h-48.1V-22.9z"/>
			<path id="_x37_" d="M452.5-10.4L444,4.6h-5.4l8.8-15.2h-9.7v-3.6h14.7V-10.4"/>
		</g>
		<g id="Button_6">
			<path id="Button_6_" fill="#003F7F" stroke="#000000" stroke-width="2" d="M630.8,27.8v33.7H584V27.8H630.8z"/>
			<path id="_x36_" d="M615,47.5c0,1-0.2,1.9-0.5,2.7c-0.4,0.9-0.9,1.6-1.5,2.1c-0.7,0.6-1.5,1.1-2.4,1.4c-0.9,0.3-1.9,0.5-3.1,0.5
				c-1.1,0-2.2-0.2-3.1-0.5c-0.9-0.3-1.7-0.8-2.4-1.4c-0.8-0.7-1.4-1.7-1.8-2.8c-0.4-1.1-0.6-2.5-0.6-4.1c0-1.7,0.2-3.1,0.6-4.4
				c0.4-1.3,1-2.4,1.9-3.4c0.8-0.9,1.9-1.7,3.2-2.2c1.3-0.5,2.9-0.8,4.7-0.8c0.6,0,1.3,0,2,0.1c0.7,0.1,1.2,0.1,1.4,0.2v3.7h-0.5
				c-0.2-0.1-0.6-0.2-1.2-0.4c-0.5-0.1-1.2-0.2-1.8-0.2c-1.6,0-2.9,0.4-3.8,1.2c-0.9,0.8-1.4,1.9-1.6,3.3c0.6-0.4,1.3-0.7,2-0.9
				c0.7-0.2,1.5-0.4,2.3-0.4c0.7,0,1.4,0.1,2,0.3c0.6,0.2,1.2,0.4,1.8,0.8c0.7,0.5,1.3,1.1,1.7,2C614.8,45.3,615,46.3,615,47.5
				 M609.3,50.4c0.3-0.3,0.5-0.6,0.6-1c0.2-0.4,0.2-0.9,0.2-1.6c0-0.6-0.1-1.1-0.3-1.5c-0.2-0.4-0.4-0.7-0.7-0.9
				c-0.3-0.2-0.7-0.4-1.1-0.5c-0.4-0.1-0.8-0.1-1.3-0.1c-0.4,0-0.8,0-1.2,0.1c-0.4,0.1-0.8,0.2-1.1,0.3c0,0.1,0,0.2,0,0.4
				c0,0.2,0,0.4,0,0.7c0,1,0.1,1.9,0.3,2.6c0.2,0.7,0.5,1.2,0.8,1.5c0.2,0.3,0.5,0.5,0.8,0.6c0.3,0.1,0.7,0.2,1,0.2
				c0.3,0,0.6-0.1,0.9-0.2C608.7,50.8,609,50.6,609.3,50.4"/>
		</g>
		<g id="Button_5">
			<path id="Button_4_" fill="#003F7F" stroke="#000000" stroke-width="2" d="M502.3,27.8h47.5v33.7h-47.5V27.8z"/>
			<path id="_x35_" d="M533.4,47.5c0,1-0.2,1.9-0.6,2.7c-0.4,0.8-0.9,1.6-1.6,2.1c-0.8,0.6-1.7,1.1-2.7,1.4c-1,0.3-2.1,0.5-3.4,0.5
				c-1.5,0-2.8-0.1-3.8-0.4c-1-0.2-1.9-0.5-2.5-0.8v-4.2h0.5c0.8,0.5,1.6,0.8,2.5,1.1c0.9,0.3,1.8,0.5,2.6,0.5
				c0.5,0,1.1-0.1,1.7-0.2c0.6-0.1,1.1-0.3,1.5-0.7c0.3-0.3,0.5-0.5,0.6-0.8c0.2-0.3,0.2-0.7,0.2-1.3c0-0.4-0.1-0.8-0.3-1.1
				c-0.2-0.3-0.4-0.6-0.8-0.8c-0.5-0.3-1-0.5-1.6-0.5c-0.6-0.1-1.2-0.1-1.7-0.1c-0.8,0-1.5,0.1-2.2,0.2c-0.7,0.1-1.3,0.3-1.8,0.4
				h-0.6V35h13.4v3.6H524v3.1c0.3,0,0.6,0,1,0c0.4,0,0.8,0,1.1,0c1,0,2,0.1,2.8,0.3c0.8,0.2,1.5,0.5,2.1,0.8
				c0.8,0.5,1.4,1.1,1.8,1.8C533.2,45.4,533.4,46.3,533.4,47.5"/>
		</g>
		<g id="Button_4">
			<path id="Button_1_" fill="#003F7F" stroke="#000000" stroke-width="2" d="M469.2,27.8v33.7h-48.1V27.8H469.2z"/>
			<path id="_x34_" d="M453.3,49.7h-2.6v4.4h-4.6v-4.4H437v-3.6l8.8-10.9h4.9v11h2.6V49.7 M446.1,46.2v-6.8l-5.5,6.8H446.1"/>
		</g>
		<g id="Button_3">
			<path id="Button_8_" fill="#003F7F" stroke="#000000" stroke-width="2" d="M584,74.6h46.8v36.3H584V74.6z"/>
			<path id="_x33_" d="M613.5,93.3c0.4,0.4,0.7,0.8,1,1.2c0.2,0.5,0.4,1.1,0.4,1.9c0,0.9-0.2,1.7-0.5,2.5c-0.3,0.8-0.9,1.4-1.6,2
				c-0.7,0.5-1.5,0.9-2.5,1.2c-1,0.3-2.1,0.4-3.5,0.4c-1.6,0-2.9-0.1-4-0.4c-1.1-0.2-2-0.5-2.7-0.8v-4.1h0.5
				c0.7,0.4,1.6,0.8,2.6,1.1c1,0.3,1.9,0.5,2.8,0.5c0.5,0,1,0,1.6-0.1c0.6-0.1,1.1-0.3,1.5-0.5c0.3-0.2,0.6-0.5,0.7-0.8
				c0.2-0.3,0.3-0.7,0.3-1.3c0-0.5-0.1-1-0.4-1.3c-0.3-0.3-0.6-0.5-1-0.6c-0.4-0.1-0.9-0.2-1.5-0.2c-0.6,0-1.1,0-1.6,0h-1v-3.4h1.1
				c0.7,0,1.2,0,1.7-0.1c0.5,0,0.9-0.1,1.3-0.3c0.4-0.2,0.6-0.4,0.8-0.6c0.2-0.3,0.3-0.7,0.3-1.2c0-0.4-0.1-0.7-0.3-0.9
				c-0.2-0.2-0.4-0.4-0.7-0.6c-0.3-0.2-0.7-0.3-1.2-0.3c-0.4-0.1-0.8-0.1-1.1-0.1c-0.8,0-1.7,0.1-2.6,0.4c-0.9,0.3-1.8,0.7-2.7,1.2
				h-0.5v-4.1c0.7-0.3,1.6-0.5,2.8-0.8c1.2-0.3,2.4-0.4,3.6-0.4c1.2,0,2.2,0.1,3.1,0.3c0.9,0.2,1.6,0.5,2.2,0.8
				c0.7,0.4,1.2,0.9,1.5,1.5c0.3,0.6,0.5,1.3,0.5,2.1c0,1-0.3,2-1,2.8c-0.6,0.8-1.5,1.3-2.6,1.6v0.2c0.4,0.1,0.9,0.2,1.4,0.4
				C612.6,92.7,613.1,93,613.5,93.3"/>
		</g>
		<g id="Button_2">
			<path id="Button_7_" fill="#003F7F" stroke="#000000" stroke-width="2" d="M502.3,74.6h47.5v36.3h-47.5V74.6z"/>
			<path id="_x32_" d="M533.5,102.3h-14.8v-3.1c1.1-0.8,2.3-1.7,3.4-2.6c1.1-0.9,2-1.7,2.7-2.4c1-1,1.7-1.8,2.2-2.6
				c0.4-0.7,0.6-1.5,0.6-2.2c0-0.9-0.3-1.5-0.8-2c-0.5-0.5-1.3-0.7-2.4-0.7c-0.8,0-1.6,0.2-2.5,0.5c-0.9,0.3-1.6,0.7-2.4,1.2h-0.4
				v-4.2c0.6-0.3,1.5-0.5,2.6-0.8c1.2-0.3,2.3-0.4,3.5-0.4c2.4,0,4.2,0.5,5.4,1.5c1.2,1,1.9,2.4,1.9,4.2c0,1.2-0.3,2.3-0.9,3.4
				c-0.6,1.1-1.5,2.2-2.7,3.3c-0.8,0.7-1.5,1.4-2.3,2c-0.8,0.6-1.3,1-1.7,1.2h8.5V102.3"/>
		</g>
		<g id="Button_1">
			<path id="Button_2_" fill="#003F7F" stroke="#000000" stroke-width="2" d="M421.1,74.6h48.1l0,36.3h-48.1V74.6z"/>
			<path id="_x31_" d="M450.8,101.7h-12.6v-3.3h4v-9.9h-4v-3.1c0.6,0,1.2,0,1.7-0.1c0.6-0.1,1-0.2,1.4-0.4c0.4-0.2,0.8-0.5,1-0.8
				c0.2-0.3,0.3-0.8,0.4-1.3h4.2v15.6h3.9V101.7"/>
		</g>
		<g id="Button_0">
			<path id="Button_10_" fill="#003F7F" stroke="#000000" stroke-width="2" d="M549.8,124.2v38.1h-47.5v-38.1H549.8z"/>
			<path id="_x30_" d="M533.9,143.3c0,1.6-0.1,3-0.4,4.3c-0.3,1.2-0.7,2.3-1.3,3.1c-0.6,0.8-1.4,1.4-2.4,1.9c-1,0.4-2.2,0.6-3.6,0.6
				c-1.4,0-2.6-0.2-3.6-0.6s-1.8-1-2.4-1.9c-0.6-0.8-1.1-1.8-1.4-3.1c-0.3-1.2-0.4-2.6-0.4-4.2c0-1.6,0.1-3.1,0.4-4.3
				c0.3-1.2,0.7-2.2,1.4-3.1c0.6-0.8,1.4-1.4,2.4-1.9c1-0.4,2.2-0.6,3.6-0.6c1.4,0,2.6,0.2,3.6,0.6c1,0.4,1.8,1.1,2.4,1.9
				c0.6,0.8,1.1,1.8,1.3,3.1C533.7,140.3,533.9,141.7,533.9,143.3 M529,143.3c0-2.3-0.2-3.9-0.7-4.9c-0.4-1-1.2-1.5-2.2-1.5
				c-1,0-1.8,0.5-2.2,1.5c-0.4,1-0.7,2.6-0.7,4.9c0,2.2,0.2,3.8,0.7,4.8c0.5,1,1.2,1.5,2.2,1.5c1,0,1.8-0.5,2.2-1.5
				C528.7,147.1,529,145.5,529,143.3"/>
		</g>
	</g>
</g>
<g id="Right_Leg_1_">
	<path id="Right_Leg" fill="none" stroke="#000000" stroke-width="2" stroke-linecap="round" stroke-linejoin="round" d="
		M506.6,226.1l-45,91.7"/>
	<path id="Right_Foot" fill="#067300" stroke="#000000" stroke-width="2" stroke-linecap="round" stroke-linejoin="round" d="
		M450.6,331.7c-11.6,0-22.4-1.7-22.4-7.3c0-5.6,9.1-6.9,22-7.3c13.3,0.3,21.6,1.7,21.6,6.9C472,330.8,450.6,331.7,450.6,331.7
		L450.6,331.7z"/>
</g>
<g id="Left_Leg_1_">
	<path id="Left_Leg" fill="none" stroke="#000000" stroke-width="2" stroke-linecap="round" stroke-linejoin="round" d="
		M624.4,226.1l44.9,92.3"/>
	<path id="Left_Foot" fill="#067300" stroke="#000000" stroke-width="2" stroke-linecap="round" stroke-linejoin="round" d="
		M681.4,332.2c-11.6,0-22.4-1.7-22.4-7.3c0-5.6,9.1-6.9,22-7.3c13.3,0.3,21.6,1.7,21.6,6.9C702.7,331.3,681.4,332.2,681.4,332.2
		L681.4,332.2z"/>
</g>
<g id="Left_Arm_1_">
	<path id="Left_Hand" fill="#C50000" stroke="#000000" stroke-width="2" d="M790.5-95.2c11.3,0,21.6-13.5,20.5-24.8
		s-3.8-23.7-21-24.8c-17.3-1.1-18.9,15.1-18.9,15.1s-4.9-2.7-8.1,1.1c-3.2,8.1,4.9,10.8,6.5,12.4C772.2-93.6,790.5-95.2,790.5-95.2z
		"/>
	<path id="Left_Arm" fill="none" stroke="#000000" stroke-width="2" stroke-linecap="round" stroke-linejoin="round" d="M724.4-53.4
		c0,0,34.9,93.6,47.9,91.5c12.9-2.2,19-133.3,19-133.3"/>
</g>
<g id="Right_Arm">
	<path id="Right_Arm_1_" fill="none" stroke="#000000" stroke-width="2" d="M393.7-46.1c0,0-71.2,79.8-56.1,89.5
		c15.1,9.7,37.7,5.6,185.5-28.9"/>
	<path id="Right_Hand" fill="#C50000" stroke="#000000" stroke-width="2" d="M536,24.5c14.6,0,19.9-9.2,20.5-24.3
		C557-14.9,547.9-24,537.6-24c-17.8,0-19.4,21.6-19.4,21.6S512.6-9,508-4.6c-2.6,6.6,2.7,5.4,9.7,13.5
		C522.9,23.9,533.1,24.9,536,24.5z"/>
</g>
</svg>
